<?xml version="1.0" encoding="utf-8"?>
<!-- Generator: Adobe Illustrator 16.0.3, SVG Export Plug-In . SVG Version: 6.00 Build 0)  -->
<!DOCTYPE svg PUBLIC "-//W3C//DTD SVG 1.1//EN" "http://www.w3.org/Graphics/SVG/1.1/DTD/svg11.dtd">
<svg version="1.1" xmlns="http://www.w3.org/2000/svg" xmlns:xlink="http://www.w3.org/1999/xlink" x="0px" y="0px" width="200px"
	 height="60px" viewBox="0 0 200 60" enable-background="new 0 0 200 60" xml:space="preserve">
<g id="background" display="none">
	<rect fill="#00ADEF" width="200" height="60"/>
</g>
<g id="word">
	<g>
		<g opacity="0.25">
			<path d="M28.488,11.96c-0.896,0.833-2.896,1.776-6,2.832l0.432,0.24l1.248,1.344c0.832,1.024,1.808,2.144,2.928,3.36
				c0.255,0.448,0.384,0.88,0.384,1.296c-0.096,0.641-0.4,1.024-0.912,1.152c-0.512,0-0.96-0.144-1.344-0.432
				c-0.641-0.352-1.601-1.375-2.88-3.072l-0.192,5.136l-0.24,3.504c-0.096,1.184-0.192,2.128-0.288,2.832
				c-0.417,1.376-1.008,2.064-1.776,2.064c-0.96,0-1.44-0.48-1.44-1.44l0.096-2.16l0.24-3.12l0.192-4.176
				c-2.369,3.552-4.176,5.744-5.424,6.576c-0.257,0.224-0.545,0.336-0.864,0.336c-0.8,0-1.232-0.4-1.296-1.2
				c0-0.319,0.271-0.751,0.816-1.296c2.527-2.72,4.752-6,6.672-9.84c-1.28,0.416-2.4,0.752-3.36,1.008
				c-0.192,0.032-0.32,0.064-0.384,0.096l-0.336,0.096l-1.392,0.144H12.6c-0.8,0-1.248-0.56-1.344-1.68
				c0-0.511,0.384-0.96,1.152-1.344c0.48-0.192,1.104-0.384,1.872-0.576l2.4-0.528l2.256-0.576l-0.048-0.864
				C18.696,10.808,18.6,10.184,18.6,9.8c0-0.48,0.352-0.912,1.056-1.296c0.448-0.224,0.944-0.336,1.488-0.336
				c0.576,0,0.96,0.672,1.152,2.016l0.096,1.488c2.4-0.672,4.32-1.248,5.76-1.728c0.384,0,0.64,0.144,0.768,0.432
				c0.064,0.128,0.096,0.256,0.096,0.384C29.016,11.144,28.84,11.545,28.488,11.96z M34.728,31.736
				c1.12-0.191,1.984-0.288,2.592-0.288c0.8,0,1.536,0.192,2.208,0.576c0.704,0.575,1.088,1.265,1.152,2.063
				c0,0.385-0.096,0.816-0.288,1.297c-1.313,4-4.016,7.808-8.112,11.424c-3.36,2.976-7.296,5.503-11.808,7.584
				c-0.864,0.447-2.016,0.896-3.456,1.344c-0.96,0.16-1.872,0.271-2.736,0.336c-1.408,0-2.208-0.464-2.4-1.392
				c0-0.449,0.127-0.769,0.384-0.96c0.735-0.129,1.503-0.305,2.304-0.528c3.936-1.088,7.52-2.784,10.752-5.088
				c0.096-0.097,0.224-0.192,0.384-0.288l0.384-0.288c0.288-0.225,0.512-0.384,0.672-0.48l-0.192-0.096
				c-1.824-0.991-3.456-2.063-4.896-3.216c-0.353-0.288-0.592-0.512-0.72-0.672c-0.161-0.16-0.24-0.385-0.24-0.672
				c0-0.256,0.144-0.592,0.432-1.008c0.256-0.289,0.544-0.48,0.864-0.576c0.256-0.064,0.48-0.096,0.672-0.096
				c0.384,0.031,0.703,0.144,0.96,0.336l1.008,0.623c1.312,0.896,2.448,1.633,3.408,2.209l1.584,0.959
				c0.896-0.768,1.824-1.631,2.784-2.592c3.04-3.391,4.56-5.967,4.56-7.728c-1.728,0.224-5.344,1.12-10.848,2.688
				c-2.241,0.703-3.968,1.199-5.184,1.487c-0.608,0-0.96-0.56-1.056-1.681c0-0.511,0.576-1.199,1.728-2.063
				c0.512-0.352,1.008-0.976,1.488-1.872c0.224-0.735,0.336-1.535,0.336-2.4c0-0.48,0.16-0.864,0.48-1.152
				c0.384-0.192,0.784-0.336,1.2-0.432c0.832,0,1.344,0.417,1.536,1.248v0.528c0,0.288,0.016,0.576,0.048,0.864
				c0,0.768-0.272,1.473-0.816,2.111C30.439,32.664,33.384,31.961,34.728,31.736z M45.048,7.64c0.384,0,0.72,0.176,1.008,0.528
				l0.24,0.624c0,0.512-0.208,0.928-0.624,1.248c-1.376,0.96-3.6,1.985-6.672,3.072v1.728c0.384,0.096,0.704,0.272,0.96,0.528
				l0.768,0.624c0.127,0.096,0.288,0.24,0.48,0.432c0.064,0,0.112,0.032,0.144,0.096l4.896,4.32c0.256,0.416,0.384,0.816,0.384,1.2
				c-0.096,0.545-0.416,0.912-0.96,1.104c-0.48,0-0.864-0.127-1.152-0.384c-1.088-0.448-2.896-1.888-5.424-4.32v0.336
				c0.223,1.888,0.336,3.296,0.336,4.224c0,2.816-0.48,5.088-1.44,6.816c-0.48,0.672-1.056,1.008-1.728,1.008
				c-1.088,0-1.632-0.592-1.632-1.776c0.992-1.792,1.536-3.68,1.632-5.664c-0.032-1.344-0.161-3.04-0.384-5.088
				c-2.528,3.712-4.448,5.952-5.76,6.72c-0.257,0.257-0.544,0.384-0.864,0.384c-0.8,0-1.232-0.432-1.296-1.296
				c0-0.32,0.271-0.704,0.816-1.152c2.656-2.56,4.928-5.472,6.816-8.736c-1.408,0.353-2.784,0.56-4.128,0.624
				c-0.544,0-0.992-0.176-1.344-0.528c-0.384-0.384-0.576-0.832-0.576-1.344c0-0.736,0.319-1.168,0.96-1.296
				c1.248-0.096,2.848-0.352,4.8-0.768l0.192-0.048l-0.048-3.072c0-0.928,0.432-1.536,1.296-1.824h0.96
				c0.928,0.288,1.392,0.896,1.392,1.824l-0.048,2.064c2.016-0.576,3.84-1.296,5.472-2.16L45.048,7.64z"/>
			<path d="M69.384,23.576c0,6.144-0.048,10.225-0.144,12.24c-0.096,1.408-0.592,2.111-1.488,2.111c-2.208,0-4.032-0.719-5.472-2.16
				c-0.224-0.191-0.384-0.415-0.48-0.672c0-0.928,0.4-1.439,1.2-1.535l3.504,0.336l-0.048-4.656c0-2.335-0.048-4.608-0.144-6.816
				c-0.16,0.256-0.368,0.641-0.624,1.152c-0.672,1.44-1.617,2.945-2.832,4.512c-0.993,1.344-2.016,2.512-3.072,3.503
				c-0.224,0.225-0.464,0.354-0.72,0.385c-0.288,0.096-0.528,0.144-0.72,0.144c-0.48,0-0.752-0.288-0.816-0.864
				c0-0.384,0.192-0.768,0.576-1.151c1.312-1.44,2.544-3.072,3.696-4.896c1.024-1.664,1.855-3.344,2.496-5.04
				c0.448-1.12,0.832-2.224,1.152-3.312l-2.736,0.864c-0.288,0.096-0.497,0.176-0.624,0.24c-0.192,0.064-0.336,0.096-0.432,0.096
				c-0.768,0.096-1.392,0.144-1.872,0.144c-0.896,0-1.424-0.655-1.584-1.968c0-0.607,0.463-1.136,1.392-1.584l2.064-0.672
				c1.472-0.288,2.736-0.591,3.792-0.912c-0.128-0.832-0.32-1.648-0.576-2.448c-0.096-0.224-0.16-0.448-0.192-0.672
				c-0.032-0.192-0.048-0.368-0.048-0.528c0.16-1.056,0.799-1.584,1.92-1.584c0.799,0.096,1.392,0.624,1.776,1.584
				c0.224,0.672,0.4,1.264,0.528,1.776c0,0.16,0.016,0.32,0.048,0.48l0.048,0.384c1.92-0.576,3.6-1.135,5.04-1.68
				c0.416,0,0.736,0.16,0.96,0.48c0.064,0.128,0.096,0.272,0.096,0.432c0,0.417-0.208,0.864-0.624,1.344
				c-0.768,0.864-2.513,1.824-5.232,2.88l0.048,0.672c0,0.288,0.016,0.528,0.048,0.72l0.096,1.488
				c1.248,1.376,2.928,4.049,5.04,8.016c0.576,1.056,0.912,2.033,1.008,2.928c0,0.768-0.32,1.152-0.96,1.152
				c-0.32,0-0.672-0.208-1.056-0.624c-0.416-0.576-1.088-1.616-2.016-3.12L69.384,23.576z M65.832,51.08
				c0,0.896-0.176,1.472-0.528,1.729c-0.353,0.256-0.672,0.384-0.96,0.384c-0.416,0-0.785-0.209-1.104-0.624l-0.624-0.864
				c-0.353-0.832-0.576-1.824-0.672-2.976l-0.72-5.473c-0.256-1.119-0.384-1.92-0.384-2.399c0-0.864,0.528-1.345,1.584-1.44h0.816
				c0.448,0,0.864,0.336,1.248,1.008l0.144,0.912l0.096,1.393c0.192,1.824,0.384,3.408,0.576,4.752L65.832,51.08z M88.488,42.297
				l-0.24,0.096c1.12,0.607,2.064,1.296,2.832,2.063c0.607,0.801,0.912,1.521,0.912,2.16c0,1.824-0.816,3.313-2.448,4.464
				c-1.505,0.864-3.344,1.344-5.52,1.44c-2.433-0.097-4.656-0.816-6.672-2.16c-1.984-1.313-3.616-3.2-4.896-5.664
				c-0.256-0.415-0.384-0.8-0.384-1.151c0-0.416,0.112-0.736,0.336-0.961c0.288-0.479,0.768-0.768,1.44-0.863
				c0.607,0,1.104,0.24,1.488,0.72c2.4,3.903,5.328,6,8.784,6.288c2.976,0,4.528-0.912,4.656-2.736c0-0.607-0.4-1.264-1.2-1.968
				l-1.344-0.769c-0.192,0.096-0.369,0.145-0.528,0.145c-0.833,0.32-1.472,0.48-1.92,0.48c-0.768,0-1.28-0.529-1.536-1.584
				L82.2,41.576c0-0.607,0.288-1.056,0.864-1.344c0.415-0.064,1.231-0.32,2.448-0.768c2.272-0.801,4.144-1.648,5.616-2.545
				l2.304-1.392c0.384-0.159,0.704-0.24,0.96-0.24c0.704,0.097,1.072,0.497,1.104,1.2c0,0.48-0.096,0.863-0.288,1.152
				C94.408,38.857,92.167,40.408,88.488,42.297z M78.696,31.352c-0.064-0.639-0.096-1.967-0.096-3.983v-3.12l0.096-2.784
				c0-1.504,0.08-3.424,0.24-5.76l0.048-3.264l-0.192-1.056c-0.032-0.096-0.048-0.208-0.048-0.336v-0.432
				c0-0.256,0.176-0.528,0.528-0.816c0.48-0.416,0.943-0.624,1.392-0.624c0.576,0,1.056,0.272,1.44,0.816
				c1.344-0.256,2.864-0.4,4.56-0.432h0.768c0.8,0.096,1.456,0.545,1.968,1.344c0.319,0.704,0.592,1.824,0.816,3.36
				c0.096,1.217,0.192,2.64,0.288,4.272l0.336,7.584c0.031,0.032,0.048,0.096,0.048,0.192l0.144,3.696
				c0,0.608-0.208,1.168-0.624,1.68c-0.48,0.544-1.04,0.815-1.68,0.815c-0.512,0-0.864-0.159-1.056-0.479
				c-1.088,0.672-2.592,1.392-4.512,2.159c-0.992,0.32-1.937,0.529-2.832,0.625c-0.512,0-0.96-0.192-1.344-0.576
				c-0.384-0.385-0.576-0.816-0.576-1.297c0-0.511,0.127-0.847,0.384-1.008C78.727,31.736,78.696,31.545,78.696,31.352z
				 M81.672,27.464c0,0.544,0.016,1.168,0.048,1.872l0.048,1.919l0.576-0.144c1.824-0.512,3.52-1.216,5.088-2.112l-0.048-3.984
				c-0.449,0.257-0.8,0.417-1.056,0.48c-1.472,0.705-2.752,1.152-3.84,1.344c-0.32,0.161-0.593,0.24-0.816,0.24V27.464z
				 M81.864,20.888c0,0.064-0.017,0.176-0.048,0.336l-0.096,3.024l5.664-1.392l-0.048-4.224l-0.912,0.384
				c-0.032,0.032-0.113,0.064-0.24,0.096L81.864,20.888z M87.24,16.376c-0.096-1.28-0.224-2.192-0.384-2.736
				c-0.192-0.672-0.513-1.008-0.96-1.008c-0.928,0-2,0.096-3.216,0.288c-0.032,0.896-0.176,2.208-0.432,3.936
				c-0.096,0.48-0.144,0.912-0.144,1.296c0.896-0.384,2.416-0.928,4.56-1.632L87.24,16.376z"/>
			<path d="M131.305,47.528c0-0.704-0.018-1.567-0.049-2.592c-0.064-1.504-0.16-3.344-0.288-5.521
				c-1.761,0.385-3.407,0.721-4.944,1.008c-2.688,0.576-5.279,1.104-7.775,1.584c0.319,0.992,0.688,1.938,1.104,2.832
				c0.16,0.48,0.24,0.816,0.24,1.009c-0.096,0.863-0.545,1.344-1.344,1.439c-0.672,0-1.217-0.353-1.632-1.056
				c-0.864-0.736-1.601-1.903-2.208-3.504c-1.44,0.225-2.784,0.464-4.032,0.72l-3.265,0.479c-0.672,0.097-1.295,0.145-1.871,0.145
				c-0.896,0-1.424-0.655-1.584-1.968c0-0.608,0.463-1.136,1.392-1.584l2.063-0.673c1.28-0.159,2.32-0.303,3.121-0.432
				c1.119-0.16,2.143-0.319,3.072-0.48c-0.097-0.191-0.145-0.383-0.145-0.575c-0.032-0.159-0.049-0.336-0.049-0.528v-0.623
				c0.064-1.152,0.752-1.777,2.064-1.873c0.736,0,1.248,0.449,1.536,1.344c0.097,0.417,0.24,0.945,0.433,1.584
				c2.527-0.415,5.151-0.895,7.871-1.439l1.488-0.288c0.607-0.096,1.088-0.192,1.439-0.288c1.057-0.191,1.952-0.367,2.688-0.527
				l-0.144-1.873c-0.096-0.863-0.145-1.471-0.145-1.823c0.031-0.896,0.592-1.44,1.68-1.632c1.024,0,1.664,0.545,1.92,1.632
				l0.289,3.024c4.191-0.832,7.566-1.616,10.127-2.353c0.448,0,0.769,0.177,0.961,0.528c0.063,0.128,0.096,0.287,0.096,0.479
				c0,0.384-0.225,0.833-0.672,1.345c-1.601,1.056-5.04,2.225-10.32,3.504l0.24,5.52c0.031,1.088,0.048,2.048,0.048,2.88
				c0.032,1.184,0.048,2.336,0.048,3.456c0,1.472-0.209,2.672-0.624,3.6c-0.479,0.961-1.169,1.44-2.063,1.44
				c-1.185,0-2.448-0.257-3.793-0.768c-1.535-0.673-2.592-1.393-3.168-2.16c-0.191-0.288-0.287-0.656-0.287-1.104
				c0.191-0.672,0.64-1.008,1.344-1.008c0.127,0,0.352,0.048,0.672,0.145c0.385,0.127,0.816,0.304,1.296,0.527
				c1.345,0.48,2.319,0.72,2.929,0.72c0.191-0.096,0.287-0.544,0.287-1.344C131.352,49.527,131.336,48.552,131.305,47.528z
				 M120.936,8.072c2.271-0.288,4.369-0.432,6.289-0.432c0.863,0,1.807,0.064,2.832,0.192c1.183,0.257,2.079,0.737,2.688,1.44
				c0.447,0.704,0.672,1.408,0.672,2.112c0,0.768-0.24,1.776-0.721,3.024c-0.544,1.121-1.088,2.048-1.631,2.784
				c-0.385,0.48-0.705,0.848-0.961,1.104c-0.512,0.416-0.977,0.624-1.392,0.624c-0.288,0-0.479-0.032-0.576-0.096l-2.352,0.624
				c-3.521,0.929-6.944,1.68-10.272,2.256l-0.432,0.144l-0.48,0.048v0.192c0.16,2.624,3.696,3.936,10.608,3.936
				c8.608,0,12.96-0.944,13.056-2.832c0-1.184-0.736-2.752-2.207-4.704c0.063-0.64,0.463-0.96,1.199-0.96
				c0.385,0.032,0.721,0.256,1.008,0.672c2.08,1.601,3.12,3.729,3.12,6.384c-0.768,3.296-6.575,4.992-17.424,5.088
				c-5.505,0-9.296-0.992-11.376-2.976c-1.088-0.992-1.632-2.72-1.632-5.184c0-3.744,0.399-7.68,1.2-11.808
				c0.256-1.023,0.928-1.536,2.016-1.536c0.672,0.096,1.104,0.4,1.296,0.912C116.968,8.696,118.791,8.36,120.936,8.072z
				 M128.904,14.84c0.384-1.184,0.623-2.176,0.72-2.976c0-0.736-0.4-1.135-1.2-1.2c-2.176,0-4.512,0.208-7.008,0.624
				c-2.177,0.353-4.24,0.816-6.191,1.392h-0.049c-0.128,0.929-0.24,1.904-0.336,2.928l-0.191,2.784
				c4.768-0.896,8.703-1.776,11.808-2.64c1.216-0.32,1.968-0.48,2.256-0.48C128.775,15.176,128.84,15.032,128.904,14.84z"/>
			<path d="M162.6,8.6c0.512,0,0.928,0.257,1.248,0.768l0.288,0.864c0,0.608-0.257,1.12-0.769,1.536
				c-1.216,0.929-3.199,1.937-5.951,3.024l0.048,0.144l-0.097,4.368c0.832-0.288,1.84-0.576,3.024-0.864
				c1.345-0.288,2.257-0.432,2.736-0.432c2.72,0,4.224,1.216,4.512,3.648l0.144,5.184c0.032,2.048,0.049,4,0.049,5.856
				c0,3.456,0.144,7.536,0.432,12.24c0.096,2.016,0.24,4.111,0.432,6.288c0,1.471-0.576,2.239-1.728,2.304
				c-0.479,0-1.104-0.177-1.872-0.528c-1.121-0.608-1.952-1.424-2.496-2.447c-0.225-0.353-0.353-0.721-0.384-1.104
				c0-0.545,0.319-0.912,0.96-1.104c0.319,0,0.96,0.287,1.92,0.863c-0.384-4.896-0.576-10.207-0.576-15.936
				c-0.832,0.416-1.584,0.736-2.256,0.96c-1.536,0.607-3.264,1.199-5.184,1.775c-0.096,3.681-0.305,6.656-0.625,8.929
				c-0.224,1.216-0.447,2.096-0.672,2.64c-0.224,0.672-0.576,1.023-1.056,1.056c-1.313,0-1.968-0.353-1.968-1.056
				c0.512-1.6,0.832-5.088,0.96-10.464c-0.192,0.097-0.353,0.144-0.479,0.144c-0.545,0.225-1.025,0.354-1.44,0.385h-0.384
				c-0.896-0.48-1.344-1.168-1.344-2.064c0-0.447,0.239-0.863,0.719-1.248l0.576-0.191l0.721-0.145
				c0.48-0.063,1.039-0.191,1.68-0.384v-14.4l0.096-3.36c-0.607,0.161-1.232,0.272-1.871,0.336c-0.672,0-1.185-0.223-1.537-0.672
				c-0.479-0.448-0.719-0.96-0.719-1.536c0-0.896,0.352-1.408,1.055-1.536c1.152-0.096,2.449-0.336,3.889-0.72
				c2.784-0.768,5.184-1.792,7.2-3.072L162.6,8.6z M164.375,22.28c-0.096-0.672-0.512-1.024-1.247-1.056
				c-1.409,0-3.393,0.544-5.952,1.632l-0.096,2.352v7.44c2.047-0.607,4-1.264,5.855-1.968c0.641-0.256,1.168-0.448,1.584-0.576
				L164.375,22.28z M159.863,24.056c0.352,0.096,0.592,0.225,0.721,0.384c0.384,0.353,0.991,1.248,1.824,2.688
				c0.256,0.353,0.399,0.656,0.432,0.912c0,0.993-0.416,1.488-1.248,1.488c-0.385,0-0.816-0.256-1.296-0.768
				c-0.097-0.031-0.208-0.112-0.336-0.24l-0.384-0.384c-0.48-0.448-1.008-0.88-1.584-1.296c-0.161-0.192-0.24-0.448-0.24-0.768
				v-0.48c0.063-0.416,0.271-0.784,0.623-1.104c0.225-0.224,0.529-0.384,0.912-0.48L159.863,24.056z M159.623,38.072h0.289
				l0.287,0.048c0.32,0.097,0.576,0.208,0.769,0.336c0.479,0.353,1.312,1.313,2.496,2.88c0.255,0.354,0.415,0.689,0.479,1.008
				c0,0.961-0.384,1.44-1.152,1.44c-0.416,0-0.863-0.256-1.344-0.769c-0.224-0.127-0.544-0.352-0.959-0.672
				c-0.576-0.447-1.297-0.943-2.16-1.487c-0.161-0.192-0.24-0.433-0.24-0.72v-0.48c0.063-0.447,0.271-0.848,0.624-1.2
				c0.096-0.096,0.224-0.175,0.384-0.239L159.623,38.072z M188.712,16.184c-0.96,1.056-3.456,2.304-7.488,3.744l-6.336,2.064
				l-1.344,0.288c-0.704,0.096-1.36,0.144-1.968,0.144c-0.961,0-1.521-0.688-1.681-2.064c0-0.607,0.496-1.152,1.488-1.632
				c0.672-0.256,1.392-0.48,2.16-0.672c1.087-0.256,2.271-0.56,3.552-0.912l3.504-1.008c3.199-0.96,5.76-1.855,7.68-2.688
				c0.544,0,0.912,0.208,1.104,0.624c0.096,0.128,0.144,0.305,0.144,0.528C189.527,15.112,189.256,15.641,188.712,16.184z
				 M186.504,28.136l0.096,15.888c0.063,4,1.296,6,3.696,6c0.607,0,1.151-0.096,1.632-0.288c0.447-0.353,0.672-0.96,0.672-1.824
				c0-2.304-0.384-4.896-1.152-7.775c0-0.736,0.32-1.152,0.961-1.248c0.575,0,1.008,0.432,1.296,1.295
				c0.575,0.865,1.104,2.625,1.584,5.28c0.223,1.12,0.336,2.208,0.336,3.265c-0.064,1.663-0.545,2.896-1.44,3.695
				c-1.088,0.8-2.608,1.2-4.56,1.2c-1.505,0-2.944-0.641-4.32-1.92c-1.409-1.601-2.112-4.048-2.112-7.344l-0.096-14.688
				c-1.408,0.128-3.377,0.784-5.904,1.968l0.049,0.432l0.047,5.568c0,6.016-0.863,10.607-2.592,13.775
				c-0.576,0.864-1.12,1.6-1.631,2.208c-0.417,0.416-0.85,0.624-1.297,0.624c-0.641,0-0.96-0.336-0.96-1.008
				c0-0.16,0.112-0.416,0.336-0.768c1.376-2.433,2.208-5.473,2.496-9.121c0.063-1.151,0.097-2.799,0.097-4.943l-0.049-3.6
				l-0.287-6.625c0-1.056,0.592-1.696,1.775-1.92c0.863,0,1.455,0.336,1.775,1.008l0.097,0.816c1.376-0.576,2.944-1.12,4.704-1.632
				c1.728-0.415,2.848-0.624,3.359-0.624C186.039,26.089,186.504,26.857,186.504,28.136z M174.552,11.576
				c-0.864-0.063-1.296-0.72-1.296-1.968c0.096-0.992,0.576-1.536,1.439-1.632c1.248,0.096,2.353,0.257,3.313,0.48
				c1.408,0.384,2.4,0.816,2.977,1.296c0.447,0.384,0.672,0.896,0.672,1.536c-0.033,0.641-0.385,1.056-1.057,1.248
				C178.999,12.088,176.983,11.768,174.552,11.576z"/>
		</g>
		<g>
			<g>
				<path fill="#FFFFFF" d="M25.488,7.96c-0.896,0.833-2.896,1.776-6,2.832l0.432,0.24l1.248,1.344
					c0.832,1.024,1.808,2.144,2.928,3.36c0.255,0.448,0.384,0.88,0.384,1.296c-0.096,0.641-0.4,1.024-0.912,1.152
					c-0.512,0-0.96-0.144-1.344-0.432c-0.641-0.352-1.601-1.375-2.88-3.072l-0.192,5.136l-0.24,3.504
					c-0.096,1.184-0.192,2.128-0.288,2.832c-0.417,1.376-1.008,2.064-1.776,2.064c-0.96,0-1.44-0.48-1.44-1.44l0.096-2.16l0.24-3.12
					l0.192-4.176c-2.369,3.552-4.176,5.744-5.424,6.576c-0.257,0.224-0.545,0.336-0.864,0.336c-0.8,0-1.232-0.4-1.296-1.2
					c0-0.319,0.271-0.751,0.816-1.296c2.527-2.72,4.752-6,6.672-9.84c-1.28,0.416-2.4,0.752-3.36,1.008
					c-0.192,0.032-0.32,0.064-0.384,0.096l-0.336,0.096l-1.392,0.144H9.6c-0.8,0-1.248-0.56-1.344-1.68
					c0-0.511,0.384-0.96,1.152-1.344c0.48-0.192,1.104-0.384,1.872-0.576l2.4-0.528l2.256-0.576l-0.048-0.864
					C15.696,6.808,15.6,6.184,15.6,5.8c0-0.48,0.352-0.912,1.056-1.296c0.448-0.224,0.944-0.336,1.488-0.336
					c0.576,0,0.96,0.672,1.152,2.016l0.096,1.488c2.4-0.672,4.32-1.248,5.76-1.728c0.384,0,0.64,0.144,0.768,0.432
					c0.064,0.128,0.096,0.256,0.096,0.384C26.016,7.144,25.84,7.545,25.488,7.96z M31.728,27.736
					c1.12-0.192,1.984-0.288,2.592-0.288c0.8,0,1.536,0.192,2.208,0.576c0.704,0.576,1.088,1.264,1.152,2.064
					c0,0.384-0.096,0.816-0.288,1.296c-1.313,4-4.016,7.808-8.112,11.424c-3.36,2.976-7.296,5.503-11.808,7.584
					c-0.864,0.447-2.016,0.896-3.456,1.344c-0.96,0.16-1.872,0.271-2.736,0.336c-1.408,0-2.208-0.464-2.4-1.392
					c0-0.449,0.127-0.769,0.384-0.96c0.735-0.129,1.503-0.305,2.304-0.528c3.936-1.088,7.52-2.784,10.752-5.088
					c0.096-0.097,0.224-0.192,0.384-0.288l0.384-0.288c0.288-0.225,0.512-0.384,0.672-0.48l-0.192-0.096
					c-1.824-0.991-3.456-2.063-4.896-3.216c-0.353-0.288-0.592-0.512-0.72-0.672c-0.161-0.16-0.24-0.385-0.24-0.672
					c0-0.256,0.144-0.592,0.432-1.008c0.256-0.289,0.544-0.48,0.864-0.576c0.256-0.064,0.48-0.096,0.672-0.096
					c0.384,0.031,0.703,0.144,0.96,0.336l1.008,0.623c1.312,0.896,2.448,1.633,3.408,2.209l1.584,0.959
					c0.896-0.768,1.824-1.631,2.784-2.592c3.04-3.391,4.56-5.967,4.56-7.728c-1.728,0.224-5.344,1.12-10.848,2.688
					c-2.241,0.703-3.968,1.199-5.184,1.487c-0.608,0-0.96-0.56-1.056-1.681c0-0.511,0.576-1.199,1.728-2.063
					c0.512-0.352,1.008-0.976,1.488-1.872c0.224-0.735,0.336-1.536,0.336-2.4c0-0.48,0.16-0.864,0.48-1.152
					c0.384-0.192,0.784-0.336,1.2-0.432c0.832,0,1.344,0.417,1.536,1.248v0.528c0,0.288,0.016,0.576,0.048,0.864
					c0,0.768-0.272,1.472-0.816,2.112C27.439,28.665,30.384,27.96,31.728,27.736z M42.048,3.64c0.384,0,0.72,0.176,1.008,0.528
					l0.24,0.624c0,0.512-0.208,0.928-0.624,1.248C41.296,7,39.072,8.025,36,9.112v1.728c0.384,0.096,0.704,0.272,0.96,0.528
					l0.768,0.624c0.127,0.096,0.288,0.24,0.48,0.432c0.064,0,0.112,0.032,0.144,0.096l4.896,4.32c0.256,0.416,0.384,0.816,0.384,1.2
					c-0.096,0.545-0.416,0.912-0.96,1.104c-0.48,0-0.864-0.127-1.152-0.384c-1.088-0.448-2.896-1.888-5.424-4.32v0.336
					c0.223,1.888,0.336,3.296,0.336,4.224c0,2.816-0.48,5.088-1.44,6.816c-0.48,0.672-1.056,1.008-1.728,1.008
					c-1.088,0-1.632-0.592-1.632-1.776c0.992-1.792,1.536-3.68,1.632-5.664c-0.032-1.344-0.161-3.04-0.384-5.088
					c-2.528,3.712-4.448,5.952-5.76,6.72c-0.257,0.257-0.544,0.384-0.864,0.384c-0.8,0-1.232-0.432-1.296-1.296
					c0-0.32,0.271-0.704,0.816-1.152c2.656-2.56,4.928-5.472,6.816-8.736c-1.408,0.353-2.784,0.56-4.128,0.624
					c-0.544,0-0.992-0.176-1.344-0.528c-0.384-0.384-0.576-0.832-0.576-1.344c0-0.736,0.319-1.168,0.96-1.296
					c1.248-0.096,2.848-0.352,4.8-0.768l0.192-0.048l-0.048-3.072c0-0.928,0.432-1.536,1.296-1.824h0.96
					c0.928,0.288,1.392,0.896,1.392,1.824l-0.048,2.064c2.016-0.576,3.84-1.296,5.472-2.16L42.048,3.64z"/>
				<path fill="#FFFFFF" d="M66.384,19.576c0,6.144-0.048,10.224-0.144,12.24c-0.096,1.408-0.592,2.111-1.488,2.111
					c-2.208,0-4.032-0.719-5.472-2.16c-0.224-0.191-0.384-0.415-0.48-0.672c0-0.927,0.4-1.439,1.2-1.536l3.504,0.336l-0.048-4.656
					c0-2.335-0.048-4.608-0.144-6.816c-0.16,0.256-0.368,0.641-0.624,1.152c-0.672,1.44-1.617,2.945-2.832,4.512
					c-0.993,1.344-2.016,2.512-3.072,3.504c-0.224,0.224-0.464,0.353-0.72,0.384c-0.288,0.096-0.528,0.144-0.72,0.144
					c-0.48,0-0.752-0.288-0.816-0.864c0-0.384,0.192-0.768,0.576-1.152c1.312-1.44,2.544-3.072,3.696-4.896
					c1.024-1.664,1.855-3.344,2.496-5.04c0.448-1.12,0.832-2.224,1.152-3.312l-2.736,0.864c-0.288,0.096-0.497,0.176-0.624,0.24
					c-0.192,0.064-0.336,0.096-0.432,0.096c-0.768,0.096-1.392,0.144-1.872,0.144c-0.896,0-1.424-0.655-1.584-1.968
					c0-0.607,0.463-1.136,1.392-1.584l2.064-0.672c1.472-0.288,2.736-0.591,3.792-0.912c-0.128-0.832-0.32-1.648-0.576-2.448
					c-0.096-0.224-0.16-0.448-0.192-0.672c-0.032-0.192-0.048-0.368-0.048-0.528c0.16-1.056,0.799-1.584,1.92-1.584
					c0.799,0.096,1.392,0.624,1.776,1.584c0.224,0.672,0.4,1.264,0.528,1.776c0,0.16,0.016,0.32,0.048,0.48l0.048,0.384
					c1.92-0.576,3.6-1.135,5.04-1.68c0.416,0,0.736,0.16,0.96,0.48c0.064,0.128,0.096,0.272,0.096,0.432
					c0,0.417-0.208,0.864-0.624,1.344c-0.768,0.864-2.513,1.824-5.232,2.88l0.048,0.672c0,0.288,0.016,0.528,0.048,0.72l0.096,1.488
					c1.248,1.376,2.928,4.049,5.04,8.016c0.576,1.056,0.912,2.033,1.008,2.928c0,0.768-0.32,1.152-0.96,1.152
					c-0.32,0-0.672-0.208-1.056-0.624c-0.416-0.576-1.088-1.616-2.016-3.12L66.384,19.576z M62.832,47.08
					c0,0.896-0.176,1.472-0.528,1.729c-0.353,0.256-0.672,0.384-0.96,0.384c-0.416,0-0.785-0.209-1.104-0.624l-0.624-0.864
					c-0.353-0.832-0.576-1.824-0.672-2.976l-0.72-5.473c-0.256-1.119-0.384-1.92-0.384-2.399c0-0.864,0.528-1.345,1.584-1.44h0.816
					c0.448,0,0.864,0.336,1.248,1.008l0.144,0.912l0.096,1.393c0.192,1.824,0.384,3.408,0.576,4.752L62.832,47.08z M85.488,38.297
					l-0.24,0.096c1.12,0.607,2.064,1.296,2.832,2.063c0.607,0.801,0.912,1.521,0.912,2.16c0,1.824-0.816,3.313-2.448,4.464
					c-1.505,0.864-3.344,1.344-5.52,1.44c-2.433-0.097-4.656-0.816-6.672-2.16c-1.984-1.313-3.616-3.2-4.896-5.664
					c-0.256-0.415-0.384-0.8-0.384-1.151c0-0.416,0.112-0.736,0.336-0.961c0.288-0.479,0.768-0.768,1.44-0.863
					c0.607,0,1.104,0.24,1.488,0.72c2.4,3.903,5.328,6,8.784,6.288c2.976,0,4.528-0.912,4.656-2.736c0-0.607-0.4-1.264-1.2-1.968
					l-1.344-0.769c-0.192,0.096-0.369,0.145-0.528,0.145c-0.833,0.32-1.472,0.48-1.92,0.48c-0.768,0-1.28-0.529-1.536-1.584
					L79.2,37.576c0-0.607,0.288-1.056,0.864-1.344c0.415-0.064,1.231-0.32,2.448-0.768c2.272-0.801,4.144-1.648,5.616-2.545
					l2.304-1.392c0.384-0.159,0.704-0.24,0.96-0.24c0.704,0.097,1.072,0.497,1.104,1.2c0,0.48-0.096,0.863-0.288,1.152
					C91.408,34.857,89.167,36.408,85.488,38.297z M75.696,27.352c-0.064-0.64-0.096-1.968-0.096-3.984v-3.12l0.096-2.784
					c0-1.504,0.08-3.424,0.24-5.76l0.048-3.264l-0.192-1.056c-0.032-0.096-0.048-0.208-0.048-0.336V6.616
					c0-0.256,0.176-0.528,0.528-0.816c0.48-0.416,0.943-0.624,1.392-0.624c0.576,0,1.056,0.272,1.44,0.816
					c1.344-0.256,2.864-0.4,4.56-0.432h0.768c0.8,0.096,1.456,0.545,1.968,1.344c0.319,0.704,0.592,1.824,0.816,3.36
					c0.096,1.217,0.192,2.64,0.288,4.272l0.336,7.584c0.031,0.032,0.048,0.096,0.048,0.192l0.144,3.696
					c0,0.608-0.208,1.168-0.624,1.68c-0.48,0.544-1.04,0.816-1.68,0.816c-0.512,0-0.864-0.16-1.056-0.48
					c-1.088,0.672-2.592,1.392-4.512,2.16c-0.992,0.32-1.937,0.528-2.832,0.624c-0.512,0-0.96-0.192-1.344-0.576
					c-0.384-0.384-0.576-0.816-0.576-1.296c0-0.511,0.127-0.847,0.384-1.008C75.727,27.736,75.696,27.544,75.696,27.352z
					 M78.672,23.464c0,0.544,0.016,1.168,0.048,1.872l0.048,1.92l0.576-0.144c1.824-0.512,3.52-1.216,5.088-2.112l-0.048-3.984
					c-0.449,0.257-0.8,0.417-1.056,0.48c-1.472,0.705-2.752,1.152-3.84,1.344c-0.32,0.161-0.593,0.24-0.816,0.24V23.464z
					 M78.864,16.888c0,0.064-0.017,0.176-0.048,0.336l-0.096,3.024l5.664-1.392l-0.048-4.224l-0.912,0.384
					c-0.032,0.032-0.113,0.064-0.24,0.096L78.864,16.888z M84.24,12.376c-0.096-1.28-0.224-2.192-0.384-2.736
					c-0.192-0.672-0.513-1.008-0.96-1.008c-0.928,0-2,0.096-3.216,0.288c-0.032,0.896-0.176,2.208-0.432,3.936
					c-0.096,0.48-0.144,0.912-0.144,1.296c0.896-0.384,2.416-0.928,4.56-1.632L84.24,12.376z"/>
				<path fill="#FFFFFF" d="M128.305,43.528c0-0.704-0.018-1.567-0.049-2.592c-0.064-1.504-0.16-3.344-0.288-5.521
					c-1.761,0.385-3.407,0.721-4.944,1.008c-2.688,0.576-5.279,1.104-7.775,1.584c0.319,0.992,0.688,1.938,1.104,2.832
					c0.16,0.48,0.24,0.816,0.24,1.009c-0.096,0.863-0.545,1.344-1.344,1.439c-0.672,0-1.217-0.353-1.632-1.056
					c-0.864-0.736-1.601-1.903-2.208-3.504c-1.44,0.225-2.784,0.464-4.032,0.72l-3.265,0.479c-0.672,0.097-1.295,0.145-1.871,0.145
					c-0.896,0-1.424-0.655-1.584-1.968c0-0.608,0.463-1.136,1.392-1.584l2.063-0.673c1.28-0.159,2.32-0.303,3.121-0.432
					c1.119-0.16,2.143-0.319,3.072-0.48c-0.097-0.191-0.145-0.383-0.145-0.575c-0.032-0.159-0.049-0.336-0.049-0.528v-0.623
					c0.064-1.152,0.752-1.777,2.064-1.873c0.736,0,1.248,0.449,1.536,1.344c0.097,0.417,0.24,0.945,0.433,1.584
					c2.527-0.415,5.151-0.895,7.871-1.439l1.488-0.288c0.607-0.096,1.088-0.192,1.439-0.288c1.057-0.191,1.952-0.367,2.688-0.527
					l-0.144-1.873c-0.096-0.864-0.145-1.471-0.145-1.824c0.031-0.896,0.592-1.44,1.68-1.632c1.024,0,1.664,0.545,1.92,1.632
					l0.289,3.024c4.191-0.833,7.566-1.616,10.127-2.353c0.448,0,0.769,0.176,0.961,0.528c0.063,0.128,0.096,0.288,0.096,0.48
					c0,0.384-0.225,0.833-0.672,1.345c-1.601,1.056-5.04,2.225-10.32,3.504l0.24,5.52c0.031,1.088,0.048,2.048,0.048,2.88
					c0.032,1.184,0.048,2.336,0.048,3.456c0,1.472-0.209,2.672-0.624,3.6c-0.479,0.961-1.169,1.44-2.063,1.44
					c-1.185,0-2.448-0.257-3.793-0.768c-1.535-0.673-2.592-1.393-3.168-2.16c-0.191-0.288-0.287-0.656-0.287-1.104
					c0.191-0.672,0.64-1.008,1.344-1.008c0.127,0,0.352,0.048,0.672,0.145c0.385,0.127,0.816,0.304,1.296,0.527
					c1.345,0.48,2.319,0.72,2.929,0.72c0.191-0.096,0.287-0.544,0.287-1.344C128.352,45.527,128.336,44.552,128.305,43.528z
					 M117.936,4.072c2.271-0.288,4.369-0.432,6.289-0.432c0.863,0,1.807,0.064,2.832,0.192c1.183,0.257,2.079,0.737,2.688,1.44
					c0.447,0.704,0.672,1.408,0.672,2.112c0,0.768-0.24,1.776-0.721,3.024c-0.544,1.121-1.088,2.048-1.631,2.784
					c-0.385,0.48-0.705,0.848-0.961,1.104c-0.512,0.416-0.977,0.624-1.392,0.624c-0.288,0-0.479-0.032-0.576-0.096l-2.352,0.624
					c-3.521,0.929-6.944,1.68-10.272,2.256l-0.432,0.144l-0.48,0.048v0.192c0.16,2.624,3.696,3.936,10.608,3.936
					c8.608,0,12.96-0.944,13.056-2.832c0-1.184-0.736-2.752-2.207-4.704c0.063-0.64,0.463-0.96,1.199-0.96
					c0.385,0.032,0.721,0.256,1.008,0.672c2.08,1.601,3.12,3.729,3.12,6.384c-0.768,3.296-6.575,4.992-17.424,5.088
					c-5.505,0-9.296-0.992-11.376-2.976c-1.088-0.992-1.632-2.72-1.632-5.184c0-3.744,0.399-7.68,1.2-11.808
					c0.256-1.023,0.928-1.536,2.016-1.536c0.672,0.096,1.104,0.4,1.296,0.912C113.968,4.696,115.791,4.36,117.936,4.072z
					 M125.904,10.84c0.384-1.184,0.623-2.176,0.72-2.976c0-0.736-0.4-1.135-1.2-1.2c-2.176,0-4.512,0.208-7.008,0.624
					c-2.177,0.353-4.24,0.816-6.191,1.392h-0.049c-0.128,0.929-0.24,1.904-0.336,2.928l-0.191,2.784
					c4.768-0.896,8.703-1.776,11.808-2.64c1.216-0.32,1.968-0.48,2.256-0.48C125.775,11.176,125.84,11.032,125.904,10.84z"/>
				<path fill="#FFFFFF" d="M159.6,4.6c0.512,0,0.928,0.257,1.248,0.768l0.288,0.864c0,0.608-0.257,1.12-0.769,1.536
					c-1.216,0.929-3.199,1.937-5.951,3.024l0.048,0.144l-0.097,4.368c0.832-0.288,1.84-0.576,3.024-0.864
					c1.345-0.288,2.257-0.432,2.736-0.432c2.72,0,4.224,1.216,4.512,3.648l0.144,5.184c0.032,2.048,0.049,4,0.049,5.856
					c0,3.456,0.144,7.536,0.432,12.24c0.096,2.016,0.24,4.111,0.432,6.288c0,1.471-0.576,2.239-1.728,2.304
					c-0.479,0-1.104-0.177-1.872-0.528c-1.121-0.608-1.952-1.424-2.496-2.447c-0.225-0.353-0.353-0.721-0.384-1.104
					c0-0.545,0.319-0.912,0.96-1.104c0.319,0,0.96,0.287,1.92,0.863c-0.384-4.896-0.576-10.207-0.576-15.936
					c-0.832,0.416-1.584,0.736-2.256,0.96c-1.536,0.608-3.264,1.199-5.184,1.775c-0.096,3.681-0.305,6.656-0.625,8.929
					c-0.224,1.216-0.447,2.096-0.672,2.64c-0.224,0.672-0.576,1.023-1.056,1.056c-1.313,0-1.968-0.353-1.968-1.056
					c0.512-1.6,0.832-5.088,0.96-10.464c-0.192,0.097-0.353,0.144-0.479,0.144c-0.545,0.225-1.025,0.354-1.44,0.385h-0.384
					c-0.896-0.48-1.344-1.168-1.344-2.064c0-0.447,0.239-0.864,0.719-1.248l0.576-0.192l0.721-0.144
					c0.48-0.063,1.039-0.192,1.68-0.384v-14.4l0.096-3.36c-0.607,0.161-1.232,0.272-1.871,0.336c-0.672,0-1.185-0.223-1.537-0.672
					c-0.479-0.448-0.719-0.96-0.719-1.536c0-0.896,0.352-1.408,1.055-1.536c1.152-0.096,2.449-0.336,3.889-0.72
					c2.784-0.768,5.184-1.792,7.2-3.072L159.6,4.6z M161.375,18.28c-0.096-0.672-0.512-1.024-1.247-1.056
					c-1.409,0-3.393,0.544-5.952,1.632l-0.096,2.352v7.44c2.047-0.607,4-1.264,5.855-1.968c0.641-0.256,1.168-0.448,1.584-0.576
					L161.375,18.28z M156.863,20.056c0.352,0.096,0.592,0.225,0.721,0.384c0.384,0.353,0.991,1.248,1.824,2.688
					c0.256,0.353,0.399,0.656,0.432,0.912c0,0.993-0.416,1.488-1.248,1.488c-0.385,0-0.816-0.256-1.296-0.768
					c-0.097-0.031-0.208-0.112-0.336-0.24l-0.384-0.384c-0.48-0.448-1.008-0.88-1.584-1.296c-0.161-0.192-0.24-0.448-0.24-0.768
					v-0.48c0.063-0.416,0.271-0.784,0.623-1.104c0.225-0.224,0.529-0.384,0.912-0.48L156.863,20.056z M156.623,34.072h0.289
					l0.287,0.048c0.32,0.097,0.576,0.208,0.769,0.336c0.479,0.353,1.312,1.313,2.496,2.88c0.255,0.354,0.415,0.689,0.479,1.008
					c0,0.961-0.384,1.44-1.152,1.44c-0.416,0-0.863-0.256-1.344-0.769c-0.224-0.127-0.544-0.352-0.959-0.672
					c-0.576-0.447-1.297-0.943-2.16-1.487c-0.161-0.192-0.24-0.433-0.24-0.72v-0.48c0.063-0.447,0.271-0.848,0.624-1.2
					c0.096-0.096,0.224-0.175,0.384-0.239L156.623,34.072z M185.712,12.184c-0.96,1.056-3.456,2.304-7.488,3.744l-6.336,2.064
					l-1.344,0.288c-0.704,0.096-1.36,0.144-1.968,0.144c-0.961,0-1.521-0.688-1.681-2.064c0-0.607,0.496-1.152,1.488-1.632
					c0.672-0.256,1.392-0.48,2.16-0.672c1.087-0.256,2.271-0.56,3.552-0.912l3.504-1.008c3.199-0.96,5.76-1.855,7.68-2.688
					c0.544,0,0.912,0.208,1.104,0.624c0.096,0.128,0.144,0.305,0.144,0.528C186.527,11.112,186.256,11.641,185.712,12.184z
					 M183.504,24.136l0.096,15.888c0.063,4,1.296,6,3.696,6c0.607,0,1.151-0.096,1.632-0.288c0.447-0.353,0.672-0.96,0.672-1.824
					c0-2.304-0.384-4.896-1.152-7.775c0-0.736,0.32-1.152,0.961-1.248c0.575,0,1.008,0.432,1.296,1.295
					c0.575,0.865,1.104,2.625,1.584,5.28c0.223,1.12,0.336,2.208,0.336,3.265c-0.064,1.663-0.545,2.896-1.44,3.695
					c-1.088,0.8-2.608,1.2-4.56,1.2c-1.505,0-2.944-0.641-4.32-1.92c-1.409-1.601-2.112-4.048-2.112-7.344l-0.096-14.688
					c-1.408,0.128-3.377,0.784-5.904,1.968l0.049,0.432l0.047,5.568c0,6.016-0.863,10.607-2.592,13.775
					c-0.576,0.864-1.12,1.6-1.631,2.208c-0.417,0.416-0.85,0.624-1.297,0.624c-0.641,0-0.96-0.336-0.96-1.008
					c0-0.16,0.112-0.416,0.336-0.768c1.376-2.433,2.208-5.473,2.496-9.121c0.063-1.151,0.097-2.799,0.097-4.943l-0.049-3.6
					l-0.287-6.624c0-1.056,0.592-1.696,1.775-1.92c0.863,0,1.455,0.336,1.775,1.008l0.097,0.816c1.376-0.576,2.944-1.12,4.704-1.632
					c1.728-0.415,2.848-0.624,3.359-0.624C183.039,22.089,183.504,22.857,183.504,24.136z M171.552,7.576
					c-0.864-0.063-1.296-0.72-1.296-1.968c0.096-0.992,0.576-1.536,1.439-1.632c1.248,0.096,2.353,0.257,3.313,0.48
					c1.408,0.384,2.4,0.816,2.977,1.296c0.447,0.384,0.672,0.896,0.672,1.536c-0.033,0.641-0.385,1.056-1.057,1.248
					C175.999,8.088,173.983,7.768,171.552,7.576z"/>
			</g>
		</g>
	</g>
	<g>
	</g>
	<g>
	</g>
	<g>
	</g>
	<g>
	</g>
	<g>
	</g>
	<g>
	</g>
	<g>
	</g>
	<g>
	</g>
	<g>
	</g>
	<g>
	</g>
	<g>
	</g>
	<g>
	</g>
	<g>
	</g>
	<g>
	</g>
	<g>
	</g>
</g>
</svg>
